<svg width="19" height="22" viewBox="0 0 19 22" fill="none" xmlns="http://www.w3.org/2000/svg">
<path d="M4.08694 7.95654V5.95654C4.08694 4.63046 4.61373 3.35869 5.55141 2.42101C6.48909 1.48333 7.76086 0.956543 9.08694 0.956543C10.413 0.956543 11.6848 1.48333 12.6225 2.42101C13.5602 3.35869 14.0869 4.63046 14.0869 5.95654V7.95654H17.0869C17.3522 7.95654 17.6065 8.0619 17.7941 8.24944C17.9816 8.43697 18.0869 8.69133 18.0869 8.95654V20.9565C18.0869 21.2218 17.9816 21.4761 17.7941 21.6636C17.6065 21.8512 17.3522 21.9565 17.0869 21.9565H1.08694C0.821728 21.9565 0.567374 21.8512 0.379838 21.6636C0.192301 21.4761 0.0869446 21.2218 0.0869446 20.9565V8.95654C0.0869446 8.69133 0.192301 8.43697 0.379838 8.24944C0.567374 8.0619 0.821728 7.95654 1.08694 7.95654H4.08694ZM4.08694 9.95654H2.08694V19.9565H16.0869V9.95654H14.0869V11.9565H12.0869V9.95654H6.08694V11.9565H4.08694V9.95654ZM6.08694 7.95654H12.0869V5.95654C12.0869 5.16089 11.7709 4.39783 11.2083 3.83522C10.6457 3.27261 9.88259 2.95654 9.08694 2.95654C8.2913 2.95654 7.52823 3.27261 6.96562 3.83522C6.40301 4.39783 6.08694 5.16089 6.08694 5.95654V7.95654Z" fill="#131212"/>
</svg>
